<?xml version="1.0" encoding="utf-8"?>
<!-- Generator: Adobe Illustrator 19.2.1, SVG Export Plug-In . SVG Version: 6.00 Build 0)  -->
<svg version="1.1" id="Gyroscope" xmlns="http://www.w3.org/2000/svg" xmlns:xlink="http://www.w3.org/1999/xlink" x="0px" y="0px"
	 viewBox="0 0 90 90" style="enable-background:new 0 0 90 90;" xml:space="preserve">
<path d="M83.7,9.8C84.1,9.9,84.6,10,85,10c2.8,0,5-2.2,5-5s-2.2-5-5-5s-5,2.2-5,5c0,0.4,0.1,0.9,0.2,1.3L75,11.5C67,4.3,56.5,0,45,0
	C20.1,0,0,20.1,0,45c0,11.5,4.3,22,11.5,30l-5.2,5.2C5.9,80.1,5.4,80,5,80c-2.8,0-5,2.2-5,5s2.2,5,5,5s5-2.2,5-5
	c0-0.4-0.1-0.9-0.2-1.3l5.2-5.2C23,85.7,33.5,90,45,90c24.9,0,45-20.1,45-45c0-11.5-4.3-22-11.5-30L83.7,9.8z M45,85
	C22.9,85,5,67.1,5,45S22.9,5,45,5s40,17.9,40,40S67.1,85,45,85z"/>
<path d="M46,16.7c0.8,0.8,1.7,1.7,2.5,2.8c7.8-2.5,15-1.9,19.5,2.6c7.7,7.7,4.1,23.8-7.9,36.3c-0.3,0.3-0.6,0.6-0.9,0.9
	c-0.5,0.5-1.1,1.1-1.7,1.6c-3.6,3.3-7.6,6-11.5,7.9c-0.9,0.4-1.8,0.8-2.7,1.2c0,0,0,0,0,0C35,73.2,26.8,72.8,22,68
	c-7.7-7.7-4.1-23.8,7.9-36.4c0,1,0.1,2.1,0.2,3.2c0.4,4.3,1.3,9,2.7,13.8c2.4,7.9,5.7,14.8,9.3,19.6c0.9-0.3,1.7-0.7,2.6-1.1
	c-3.6-4.2-7.2-11-9.6-19.2c-1.6-5.3-2.4-10.3-2.7-14.8c-0.1-1.4-0.1-2.8,0-4.1c0,0,0,0,0,0c0.1-1.7,0.3-3.3,0.6-4.7c0,0,0,0,0,0
	c0.8-3.1,2.1-5.1,4.1-5.7c1.1-0.3,2.3-0.2,3.6,0.5c-1.6,0.9-3.1,1.9-4.7,2.9c-0.7,1.1-1.2,2.8-1.5,5.1c3-2.4,6-4.4,9.1-5.9
	c0.8,0.7,1.5,1.6,2.3,2.5c3.3,4.2,6.5,10.7,8.8,18.2c1.7,5.8,2.6,11.3,2.7,16c0.1-0.1,0.2-0.2,0.3-0.3c0.7-0.7,1.4-1.5,2.1-2.2
	c-0.4-4.4-1.3-9.2-2.8-14.2c-2.3-7.6-5.5-14.2-8.9-19c-4.1-5.7-8.6-8.8-12.3-7.7c-3.5,1.1-5.6,5.8-6,12.5c-0.5,0.4-0.9,0.9-1.4,1.3
	c-14.6,14.6-19.1,33.9-10.1,43c6.1,6.1,16.8,6,27.5,0.9c2.8,2.5,5.6,3.6,8,2.8c3.5-1.1,5.6-5.8,6-12.5c0.5-0.4,0.9-0.9,1.4-1.4
	c14.6-14.6,19.1-33.9,10.1-43C65.8,12.8,56.1,12.5,46,16.7z M52.8,71.3c-1.1,0.3-2.3,0.1-3.6-0.5c2.6-1.5,5.2-3.2,7.7-5.2
	C56.1,68.6,54.8,70.7,52.8,71.3z"/>
<path d="M45,37.5c4.1,0,7.5,3.4,7.5,7.5s-3.4,7.5-7.5,7.5s-7.5-3.4-7.5-7.5S40.9,37.5,45,37.5z"/>
</svg>
